<svg xmlns="http://www.w3.org/2000/svg" viewBox="0 0 418.61 176.01">
  <defs>
    <style>
      .cls-1 {
        fill: #333;
      }

      .cls-2 {
        fill: #231f20;
      }

      .cls-3 {
        fill: #fff;
      }

      .cls-4 {
        fill: #cb3233;
      }
    </style>
  </defs>
  <title>Asset 1</title>
  <g id="Layer_2" data-name="Layer 2">
    <g id="BG">
      <g id="JAP">
        <g id="suits">
          <rect class="cls-1" width="169.07" height="93.63"/>
          <ellipse class="cls-2" cx="169.07" cy="46.81" rx="4.23" ry="46.81"/>
          <ellipse class="cls-3" cx="169.87" cy="43.2" rx="3.53" ry="39.06"/>
          <polygon id="shirt" class="cls-3" points="169.87 82.26 195.28 82.26 201.69 4.13 169.87 4.13 169.87 82.26"/>
          <path class="cls-1" d="M201.69,43.2c-1.3,21.54-4.95,39.06-6.41,39.06s-1.44-17.55.2-39.06c1.42-18.54,4.75-39.06,6.21-39.06S203,21.62,201.69,43.2Z"/>
          <circle class="cls-4" cx="182.49" cy="16.47" r="7.86"/>
        </g>
        <path class="cls-3" d="M418.55,82.46c-.83-5.9-8.66-7.73-13.93-7.87-10.39-.27-41.64-1-52-1.25-6.52-.14-8.79-2.78-7.36-9.27,1.94-8.75.58-12.26-7.52-16.12-4.07-1.93-5-4-3.81-8.28,1.88-6.54-.25-11.89-6.67-14.73-3-1.32-6.63-1.29-9.52-2.76-2.26-1.15-4.94-3.39-5.52-5.64C309.9,7.62,299.52-.14,289.88,0c-13.4.2-18.42,1.22-32,1.38l-7.39,0c-3-.1-14.89,2.11-22,2-10.13-.14-18.32,2.84-26.8,5.1-5,21.57-5.14,44.83-5.9,67.2A140.56,140.56,0,0,1,230,107.29c3,3.8,5.76,8.54,6.62,13.21,3,16.43,9.09,32.68,4.15,49.84-1.43,5,.87,6.44,5.78,5.31,8.46-1.94,14.76-8.57,15.5-20,.76-11.74-.06-23.63-.77-35.42-.69-11.52,3.81-18.74,15.21-20.81a202.08,202.08,0,0,1,29.66-3.37c19.74-.61,39.51-.25,59.26-.6,6.4-.11,36.31-1.65,42.64-2.68C413.72,91.91,419.25,87.43,418.55,82.46Z"/>
      </g>
    </g>
  </g>
</svg>
