<svg xmlns="http://www.w3.org/2000/svg" viewBox="0 0 416.19 182.33">
  <defs>
    <style>
      .cls-1 {
        fill: #333;
      }

      .cls-2 {
        fill: #231f20;
      }

      .cls-3 {
        fill: #fff;
      }

      .cls-4 {
        fill: #363794;
      }

      .cls-5 {
        fill: #cb3233;
      }
    </style>
  </defs>
  <title>Asset 2</title>
  <g id="Layer_2" data-name="Layer 2">
    <g id="BG">
      <g id="RUS">
        <g id="suits">
          <polygon class="cls-1" points="232.8 92.39 232.87 182.33 416.19 182.19 416.19 92.25 232.8 92.39"/>
          <ellipse class="cls-2" cx="232.83" cy="137.36" rx="4.06" ry="44.97"/>
          <path class="cls-3" d="M231.81,97.32c-1.36,0-2.52,8.81-3.05,21.53h6.13C234.34,106.12,233.16,97.32,231.81,97.32Z"/>
          <path class="cls-4" d="M235.23,134.84c0-5.72-.12-11.14-.34-16h-6.13c-.2,4.85-.32,10.27-.31,16,0,3.48,0,6.85.13,10h6.53C235.19,141.69,235.23,138.32,235.23,134.84Z"/>
          <path class="cls-5" d="M228.58,144.89c.41,15.84,1.73,27.48,3.29,27.48s2.86-11.64,3.24-27.48Z"/>
          <polygon class="cls-3" points="231.81 97.32 207.4 97.33 205.65 118.87 231.82 118.85 231.81 97.32"/>
          <polygon class="cls-4" points="231.82 118.85 205.65 118.87 203.53 144.91 231.84 144.89 231.82 118.85"/>
          <polygon class="cls-5" points="203.53 144.91 201.3 172.39 231.87 172.37 231.84 144.89 203.53 144.91"/>
          <path class="cls-1" d="M201.27,134.87c1.23-20.69,4.72-37.53,6.13-37.53s1.4,16.86-.16,37.53c-1.35,17.81-4.53,37.53-5.94,37.53S200,155.59,201.27,134.87Z"/>
        </g>
        <path class="cls-3" d="M197.61,95.27c-.28-.63-.55-1.26-.8-1.91-2.3-5.8-3.79-11.9-5.55-17.88a78.37,78.37,0,0,0-5.15-13.72c-8.76-17.15-13.46-34.55-12.64-53.31.12-2.79-2.36-7.67-4.52-8.23-3-.78-8.49.55-10.09,2.79-6.46,9.09-11,18.91-8.46,30.81a59.35,59.35,0,0,1,.6,17.7c-.9,10-4.05,12.6-14.72,12.76-21.44.32-42.92,0-64.34.65-18.45.56-42.37,1.65-60.68,3.41-8,.77-12.44,5.48-11,11C1.94,85.57,8.7,86,14.46,86.16c20.43.53,46,1.41,66.4,2.15,1.76.06,3.51.86,6,1.52l-.38.51c-3.34,4.54-6.29,8.33-9,12.29-3.94,5.8-4.11,11.21,1.66,16.82a4.56,4.56,0,0,1,1.07,1.82,15.37,15.37,0,0,1,.37,6.33c-.7,5.64.89,9.61,6.34,12.85,2.45,1.45,4.42,4.66,5.23,7.4,2.51,8.5,11,14.54,20.15,14.53a153.68,153.68,0,0,1,16.61.46c7.24.76,7.95,1.6,19.93,2,13.23.41,39.38-2.13,52.37-2.88,3.73-19.69,5.08-40.07,5.07-59.75C202.53,100.78,199.1,98.66,197.61,95.27Z"/>
      </g>
    </g>
  </g>
</svg>
