<?xml version="1.0" encoding="utf-8"?>
<!-- Generator: Adobe Illustrator 23.0.2, SVG Export Plug-In . SVG Version: 6.00 Build 0)  -->
<svg version="1.1" id="Layer_1" xmlns="http://www.w3.org/2000/svg" xmlns:xlink="http://www.w3.org/1999/xlink" x="0px" y="0px"
	 viewBox="0 0 251.8 127.7" style="enable-background:new 0 0 251.8 127.7;" xml:space="preserve">
<style type="text/css">
	.st0{fill:none;stroke:#FFFFFF;stroke-width:0.57;stroke-linecap:round;stroke-linejoin:round;}
</style>
<title>Asset 1</title>
<g>
	<g id="Layer_1-2">
		<g>
			<path class="st0" d="M38.1,106.6l0.2-0.3l-0.3,2.1c0.4-0.6,0.8-1.3,1.2-2c0,0-1.5,6.1-1.3,6.2l3.5-6.2l-3.5,6.1
				c0,0,2.9-6.5,3.5-6.1c0,0-4,5.8-3.5,6.1c0.4,0.2,2.8-6.6,3.5-6.1l-2,6.2c0,0,3.4-6.2,3.5-6.1c0.7,0.4-1.3,6.2-1.3,6.2l3.5-6.1
				c0,0-2.9,6-2.6,6.2l3.5-6.1c0.5,0.3-2.5,6.2-2.5,6.2c0.7,0.4,2.7-6.6,3.5-6.1c0.3,0.2-1.1,6.2-1.1,6.2c0.6,0.3,3.5-6.1,3.5-6.1
				c0.3,0.2-3.3,6-3.1,6.1c0,0,3-6.4,3.5-6.1c0.4,0.2-2.9,6.1-2.9,6.1c0.5,0.4,3.5-6,3.5-6c0.8,0.4-4,5.7-3.3,6.1s3.5-6.1,3.5-6.1
				c0.5,0.3-2,5.9-1.4,6.2c0.5,0.3,3.2-6.1,3.5-6c0,0-3.6,5.6-2.8,6c0,0,3.3-6.1,3.5-6c0.8,0.4-1.9,5.9-1.4,6.2c0.3,0.2,3.5-6,3.5-6
				c0.4,0.2-1.7,5.9-1,6.2s3.5-6,3.5-6l-1.8,6.2c0,0,3.3-6.1,3.5-6l-3.2,6c0.2,0.1,3.2-6.2,3.5-6l-2.6,6.1l3.5-6l-2.1,6.3
				c0.5,0.3,3.5-6,3.5-6l-3.2,6c0,0,2.7-6.4,3.5-6s-1.5,6.2-1.5,6.2c0.8,0.5,2.9-6.2,3.4-5.9l-2.9,6c0,0,3.3-5.9,3.4-5.9
				c0.8,0.4-1.9,5.8-1.2,6.2l3.4-5.9c0,0-2,6-1.9,6.1c0.8,0.5,2.8-6.2,3.4-5.9l-3.4,5.9c0,0,3.2-6,3.4-5.9c0.4,0.2-2.2,5.9-1.9,6.1
				c0,0,2.7-6.3,3.4-5.9s-1.9,6.1-1.9,6.1c0.5,0.3,2.9-6.2,3.4-5.9c0.2,0.1-3.2,5.8-2.9,6c0.3,0.2,3.4-5.9,3.4-5.9l-3.2,5.9
				c0,0,2.6-6.4,3.4-5.9c0.3,0.2-3.6,5.5-2.8,6c0,0,2.8-6.2,3.4-5.9c0,0-2.6,5.8-2,6.1c0.6,0.3,3.4-5.9,3.4-5.9s-1.4,6.1-1.2,6.2
				l1.3-2.3c0.1,0.1-1.3,2.2-1.1,2.3s0.8-1.9,1-1.8c-0.2,0.6-0.4,1.2-0.5,1.8c0.1,0.1,0.4-0.8,0.4-0.8c0.1,0-0.3,0.7-0.2,0.8
				l0.2-0.3"/>
			<path class="st0" d="M42.5,92c0,0,0.2-0.3,0.2-0.3l-0.2,1c0.1,0.1,0.5-1.1,0.6-1c0.6,0.4-1.5,5-0.9,5.3c0.1,0.1,3-5.2,3-5.2
				s-2.1,5.9-1.5,6.3s3.5-6.2,3.5-6.2s-3.4,5.8-2.7,6.2C44.7,98.3,48,92,48,92l-3.3,6.2l3.5-6.2l-1.8,6.3c0,0,3.1-6.4,3.5-6.2
				c0.1,0-3.2,6.2-3.2,6.2l3.5-6.1c0.1,0.1-3.1,6.2-3.1,6.2c0.8,0.5,3.5-6.1,3.5-6.1c0.5,0.3-2.4,6.2-2.4,6.2
				c0.6,0.3,3.3-6.2,3.5-6.1l-3,6.2c0.5,0.3,3.4-6.2,3.5-6.1s-3.5,5.7-2.8,6.1c0,0,3.3-6.2,3.5-6.1l-1.8,6.2c0.6,0.3,3.5-6,3.5-6
				s-3.7,5.7-3.1,6c0,0,2.9-6.3,3.5-6c0,0-3.6,5.6-2.8,6.1c0.4,0.2,3.5-6,3.5-6c0.7,0.4-3.3,5.7-2.5,6.1c0,0,2.6-6.5,3.5-6
				c0.7,0.4-2.1,6.2-2.1,6.2s2.7-6.4,3.5-6L55.5,99l3.5-6c0.4,0.2-2.6,6.1-2.6,6.1c0.8,0.5,2.9-6.3,3.5-6s-2.6,6.1-2.6,6.1l3.5-6
				l-1.5,6.2c0.7,0.4,3.4-5.9,3.4-5.9l-1.7,6.2c0,0,2.8-6.2,3.4-5.9c0.6,0.3-1.3,6.2-1.3,6.2c0.8,0.5,3.4-5.9,3.4-5.9
				c0.5,0.3-3,5.6-2.2,6.1c0.8,0.5,3.5-5.9,3.5-5.9l-2.5,6c0.2,0.1,3.2-6.1,3.4-5.9c0.7,0.4-1.2,6.2-1.2,6.2l2.9-5.1l-1.1,5.4
				c0,0,0.5-0.9,0.5-0.9c0,0-0.4,0.8-0.3,0.9l0.2-0.3"/>
			<path class="st0" d="M40.2,78.5c0,0,0.2-0.3,0.2-0.3c0.2,0.1-0.4,4.9-0.4,4.9l2.7-4.7c0.6,0.3-1.6,6.1-1.6,6.1
				c0.4,0.2,2.9-6.3,3.5-6s-1.9,6.1-1.9,6.1s3.2-6.2,3.5-6c0,0-2.6,5.6-1.8,6.1c0.1,0,3.5-6,3.5-6l-2,6.1l3.5-6c0,0-2.3,5.9-2,6
				c0.9,0.5,3.4-6,3.4-6c0.4,0.2-1.2,6.1-1.2,6.1l3.4-5.9L52,85c0,0,3.1-6,3.4-5.9c0.8,0.4-1.4,5.8-1,6.1s3-6.1,3.4-5.9
				c0.7,0.4-2.7,5.9-2.7,5.9l3.4-5.8c0,0-2.8,5.8-2.6,6c0.8,0.4,3.4-5.9,3.4-5.9c0.3,0.2-2.7,5.9-2.7,5.9c0.5,0.3,2.8-6.2,3.4-5.9
				c0,0-2.8,5.7-2.3,6l3.4-5.9c0,0-3.5,5.5-2.8,5.9l3.4-5.9c0.5,0.3-1.1,6.1-1.1,6.1l3.4-5.8c0,0-3.2,5.8-3,5.9
				c0.5,0.3,3.4-5.8,3.4-5.8l-0.9,6.1l3.4-5.8l-2,6c0,0,2.6-6.2,3.4-5.8c0,0-3,5.6-2.5,5.9c0.2,0.1,2.7-6.2,3.4-5.8
				c0,0-3.9,5.5-3.2,5.8l3.4-5.8c0.4,0.2-3.4,5.4-2.6,5.9c0,0,2.9-6.1,3.4-5.8c0.3,0.2-1,6.1-1,6.1c0.8,0.5,3.4-5.8,3.4-5.8
				l-1.5,6.1c0.2,0.1,1.7-4.1,2.2-3.8c0.5,0.3-0.9,3.9-0.6,4l0.2-0.3"/>
			<path class="st0" d="M109.2,99.8c0.6,0.3,3.3-5.7,3.3-5.7s-1.7,5.5-1.3,5.7c0,0,3.2-5.8,3.3-5.7l-3.2,5.7l3.3-5.7
				c0.4,0.2-2.5,5.6-2.2,5.7l3.2-5.7c0.1,0.1-2.5,5.6-2.2,5.7c0.7,0.4,3.2-5.8,3.3-5.7s-1.6,5.7-1.6,5.7s2.6-6.2,3.3-5.7
				c0,0-3.5,5.3-2.8,5.7s3.2-5.8,3.3-5.7c0.7,0.4-1.8,5.4-1.2,5.7c0,0,3.1-5.9,3.3-5.7l-1.1,5.7c0.3,0.2,3.3-5.7,3.3-5.7
				s-1.1,5.7-0.9,5.7c0.4,0.3,2.6-4.5,2.6-4.5l-2.4,4.5l2.4-4.2c-0.7,1.4-1.4,2.7-2,4.2c0.7-1.1,1.4-2.3,2-3.5c0,0-0.2,3.5-0.2,3.5
				s0.2-0.3,0.2-0.3"/>
			<path class="st0" d="M90.5,111.7l0.1-0.2c0,0,0.2,1.7,0.4,1.8c0,0,1-2.5,1.3-2.3l-0.4,5c0,0,3.1-6.3,3.5-6.1l-3.3,6.7
				c0.3,0.2,4-7,4-7s-2.6,6.7-2.1,6.9c0.8,0.5,4.6-9.5,5.3-9.1l-4.9,9c0,0,5.4-11.3,6.2-10.8c0.3,0.2-6.1,10.8-6.1,10.8
				c1.8,1.1,11.1-27.7,14.8-25.6l-13,25.1l13-22.5l-10.9,21.7c1.7,1,11.7-21.5,12.2-21.2c0,0-13.1,19.2-10.8,20.6
				c2,1.2,11.9-20.6,11.9-20.6s-13.6,19.1-11.4,20.4c0.8,0.5,11.7-20.3,11.7-20.3l-11,19.9c0,0,7.4-13.8,7.8-13.6
				c0.1,0.1-6.4,11.7-5.7,12.1c1.2,0.7,4.7-9.2,5.2-8.9c0,0-3.5,6.2-2.9,6.5c0.4,0.2,1.7-2.9,1.7-2.9"/>
			<path class="st0" d="M109.5,85.5l3.9-6.8l-2.9,6.6c0.3,0.2,4-6.9,4-6.9s-1.6,6.2-1.3,6.4l4.2-7.2l-4.1,7.2c0,0,3.4-7.7,4.2-7.3
				c0,0-4.8,6.8-4.1,7.2c0.5,0.3,3.3-7.8,4.2-7.2l-2.3,6.9c0,0,4-7.2,4.1-7.2c0.7,0.4-1.4,6.3-1.4,6.3l2.2-3.8
				c-0.4,1.1-0.8,2.3-1.1,3.5l1.4-2.4c0,0.7,0,1.3-0.1,2c0.1,0.1,0.4-1,0.5-0.9c0,0.2,0,0.5,0,0.7l0.1-0.2"/>
			<path class="st0" d="M83.7,94.3c0,0,0.2-0.3,0.2-0.3L83.7,95c0.1,0.1,0.4-1,0.5-0.9c0.6,0.3-1,4.3-0.5,4.6c0.1,0,2.7-4.6,2.7-4.6
				s-1.7,5.4-1.2,5.7c0.7,0.4,3.3-5.7,3.3-5.7s-3.1,5.4-2.4,5.7c0.2,0.1,3.3-5.7,3.3-5.7l-3,5.7l3.3-5.7l-1.4,5.7c0,0,2.9-6,3.3-5.7
				c0.1,0-3,5.7-3,5.7l3.3-5.7c0.1,0-2.8,5.7-2.8,5.7c0.8,0.4,3.3-5.7,3.3-5.7c0.5,0.3-2.1,5.7-2.1,5.7c0.5,0.3,3.1-5.8,3.3-5.7
				l-2.8,5.7C91.2,100,94,94,94.1,94s-3.2,5.4-2.6,5.7c0,0,3.1-5.8,3.3-5.7l-1.5,5.7c0.6,0.3,3.3-5.7,3.3-5.7s-3.5,5.4-2.9,5.7
				c0,0,2.8-6.1,3.3-5.7c0,0-3.4,5.3-2.7,5.7c0.4,0.2,3.3-5.7,3.3-5.7c0.6,0.4-3,5.3-2.3,5.7c0,0,2.5-6.2,3.3-5.7
				c0.6,0.3-1.8,5.7-1.8,5.7s2.6-6.2,3.3-5.7l-2.5,5.7l3.3-5.7c0.4,0.2-2.4,5.7-2.4,5.7c0.8,0.5,2.8-6,3.3-5.7s-2.4,5.7-2.4,5.7
				l12-20.7l-9.8,20.8c1.6,0.9,7.7-13.3,7.7-13.3l-7.2,15.7c0,0,6-13.3,7.2-12.6s-7.9,14.5-7.9,14.5c1.9,1.1,7.9-13.7,7.9-13.7"/>
			<path class="st0" d="M88.9,81.2c0,0,0.1-0.3,0.2-0.3c0.2,0.1-0.2,4.5-0.2,4.5l2.6-4.5c0.5,0.3-1.4,5.8-1.4,5.8
				c0.4,0.2,2.8-6.1,3.3-5.8s-1.7,5.8-1.7,5.8s3.1-6,3.3-5.8c0,0-2.4,5.3-1.7,5.8c0.1,0,3.4-5.8,3.4-5.8L95,86.5l3.4-5.9
				c0,0-2.1,5.8-1.9,5.8c0.8,0.5,3.4-5.9,3.4-5.9c0.4,0.2-1,5.8-1,5.8l3.5-6l-0.9,5.9c0,0,3.2-6.3,3.6-6.2c1.1,0.6-2.9,8-2.3,8.4
				c0.8,0.5,4.4-9.2,5.1-8.8c1.2,0.7-5.1,10-5.1,10l5.8-10.2c0,0-6.3,11.2-5.8,11.5c1.5,0.9,6.7-11.6,6.7-11.6
				c0.6,0.4-6.7,12.9-6.7,12.9c1.2,0.7,6.3-13.8,7.6-13.1c0,0-8.9,13.7-7.6,14.5l8.5-14.7"/>
			<path class="st0" d="M145.1,95.3c0.4,0.2,2.3-4,2.3-4s-2,5.9-1.6,6.2c0,0,3.1-5.5,3.2-5.5l-3.1,5.5l3.2-5.5
				c0.4,0.2-2.5,5.7-2.3,5.9l3.1-5.5c0.1,0.1-2.5,5.7-2.3,5.8c0.6,0.4,3-5.5,3.1-5.5s-1.8,6.1-1.8,6.1s2.4-5.9,3.1-5.5
				c0,0-3.4,5.2-2.8,5.6s3-5.5,3.1-5.4c0.8,0.4-2.2,5.8-1.4,6.3c0,0,2.9-5.6,3.1-5.5l-1.4,6.3c0.3,0.2,3.1-5.5,3.1-5.5
				s-1.4,6.3-1.3,6.4c0.5,0.3,3.2-5.5,3.2-5.5l-3,5.5l3.2-5.5c0,0-3,5.5-2.9,5.6s3.2-5.5,3.2-5.5s-1.4,6.3-1.4,6.4
				c0.8,0.4,3.2-5.5,3.2-5.5s-3.3,5.4-2.8,5.7l3.2-5.5c0.8,0.4-3.6,5.2-2.9,5.6c0,0,2.6-5.8,3.2-5.5"/>
			<path class="st0" d="M136.7,111.4l0.1-0.2c0,0,0,2.1,0.2,2.2c0,0,1-2.6,1.4-2.4l-0.8,5.7c0,0,3.2-6.3,3.5-6.1l-3.1,6.3
				c0.2,0.2,3.7-6.4,3.7-6.4s-2,5.9-1.7,6.1c0.6,0.3,3.3-6.9,3.8-6.6l-3.4,6.5c0,0,3.3-6.9,3.8-6.6c0.2,0.1-3.7,6.6-3.7,6.6
				c0.5,0.3,2.9-7.2,3.8-6.6l-2.2,6.4l3.9-6.8l-2.1,6.5c0.6,0.3,4-7.3,4.1-7.2c0,0-3.6,6.5-2.9,6.9c0.7,0.4,4.3-7.4,4.3-7.4
				s-4.7,6.9-3.9,7.3c0.3,0.2,4.3-7.4,4.3-7.4l-3.7,7.3c0,0,4.2-7.8,4.4-7.6c0.1,0-3.4,7.1-3,7.3c1.1,0.6,4.3-8.4,4.7-8.2
				c0,0-3.8,7.3-3.1,7.7c1.1,0.6,5.1-8.9,5.1-8.9s-5.5,8.1-4.4,8.7c0.6,0.3,4.8-9.8,5.5-9.5c0,0-4.9,9-4.5,9.2
				c0,0,4.9-11.6,6.2-10.8c0.2,0.1-4.9,10.2-4.8,10.3l17.3-29.9c2.1,1.2-13.8,28.3-13.8,28.3s11.8-24.5,13.6-23.4
				c1.6,0.9-12.1,19.8-9.9,21c0,0,8.8-15.8,9.1-15.7c0.7,0.4-7.4,14.3-7.4,14.3c0.8,0.5,6.2-11.7,6.6-11.5c0,0-5.2,8.5-4.4,9
				c0.2,0.1,2.9-5.4,3.1-5.3l-2.9,5.1c0,0,2-5.1,2.7-4.7"/>
			<path class="st0" d="M146.4,86.5l3.3-5.7l-2.4,5.7c0.3,0.2,3.3-5.7,3.3-5.7s-1.2,5.6-1,5.7l3.3-5.7l-3.2,5.7c0,0,2.7-6.1,3.3-5.7
				c0,0-3.8,5.4-3.2,5.7s2.6-6.1,3.3-5.7l-1.7,5.7c0,0,3.2-5.8,3.3-5.7c0.6,0.3-1,5.7-1,5.7l3.3-5.7c0,0-2.6,5.6-2.4,5.7l3.3-5.7
				c0.4,0.3-2.2,5.7-2.2,5.7c0.6,0.4,2.5-6.2,3.3-5.7c0.2,0.1-0.8,5.7-0.8,5.7c0.6,0.3,3.3-5.7,3.3-5.7c0.3,0.2-3.1,5.6-2.9,5.7
				c0,0,2.8-6,3.3-5.7c0.4,0.2-2.7,5.7-2.7,5.7c0.5,0.3,3.3-5.7,3.3-5.7c0.7,0.4-3.7,5.4-3.1,5.7s3.3-5.7,3.3-5.7
				c0.5,0.3-1.6,5.4-1.2,5.7s3.1-5.9,3.3-5.7c0,0-3.4,5.3-2.7,5.7c0,0,3.1-5.8,3.3-5.7c1.1,0.6-3.4,8.2-2.7,8.6
				c0.4,0.2,4.9-8.6,4.9-8.6c1,0.6-8.1,14.5-6.4,15.5c1.6,0.9,8.5-14.7,8.5-14.7L161.1,97c0,0,8.3-15.3,8.7-15"/>
			<path class="st0" d="M132.5,96.7c0,0,0.3-0.6,0.4-0.6l-0.1,0.8c0.3,0.2,1-2.1,1.2-2c0.4,0.2-0.1,3.1,0.3,3.3s12.5-21.7,12.5-21.7
				s-13.4,21.6-11.1,22.9c2.6,1.5,12.8-22.1,12.8-22.1s-14.8,21.1-12.2,22.7c0.8,0.5,12-20.7,12-20.7l-11.8,20.9l11.7-20.2l-7.9,17
				c0,0,8.1-16.9,9.3-16.2c0.2,0.1-7.8,14.2-7.8,14.2l3.7-6.4c0.1,0.1-3.4,6-3.4,6c0.8,0.4,3.2-5.5,3.2-5.5"/>
			<path class="st0" d="M142.4,76.7c0,0,0.2-0.4,0.2-0.4c0.4,0.2-2.2,8.1-2.2,8.1l4.6-7.9c1.1,0.7-6,11.1-6,11.1
				c0.7,0.4,5.4-11.7,6.4-11.1"/>
			<path class="st0" d="M181.3,93.1c0,0,0.7-1.5,0.8-1.4c0.3,0.2-1.1,6.1-1.1,6.1l3-5.2c0.6,0.3-1.4,5.9-1.4,5.9
				c0.3,0.2,2.5-5.4,3-5.1s-1.7,5.8-1.7,5.8s2.8-5.5,3.1-5.3c0,0-2.6,5.5-1.8,6c0.1,0,3.4-5.9,3.4-5.9l-2.1,6.3l3.6-6.3
				c0,0-2.5,6.2-2.2,6.4c0.9,0.5,3.7-6.4,3.7-6.4c0.4,0.2-1.3,6.4-1.3,6.4l3.7-6.4l-1.1,6.4c0,0,3.4-6.6,3.7-6.4
				c0.8,0.5-1.6,6.1-1.2,6.4s3.2-6.7,3.7-6.4c0.8,0.4-3,6.4-3,6.4l3.7-6.4c0,0-3.1,6.2-2.9,6.4c0.8,0.5,3.7-6.4,3.7-6.4
				c0.3,0.2-2.9,6.4-2.9,6.4c0.6,0.3,3.1-6.7,3.7-6.4c0,0-3.1,6.1-2.5,6.4l3.7-6.4c0,0-3.8,5.9-3,6.4l3.7-6.4
				c0.6,0.3-1.3,6.4-1.3,6.4l3.7-6.4c0,0-3.5,6.3-3.4,6.4c0.5,0.3,3.7-6.4,3.7-6.4l-1.1,6.4l3.7-6.4l-2.2,6.4c0,0,2.9-6.8,3.7-6.4
				c0,0-3.3,6.1-2.8,6.4c0.2,0.1,3-6.8,3.7-6.4c0,0-4.3,6-3.6,6.4l3.7-6.4c0.4,0.2-3.8,5.9-2.9,6.4c0,0,3.2-6.7,3.7-6.4
				c0.3,0.2-1.1,6.4-1.1,6.4c0.9,0.5,3.7-6.4,3.7-6.4l-1.6,6.4c0.4,0.2,2.9-6.9,3.7-6.4c0.6,0.3-1.9,6.2-1.4,6.4
				c0.9,0.5,3.7-6.4,3.7-6.4s-3.8,6-3.1,6.4l3.7-6.4c0.4,0.2-2.4,6.4-2.3,6.4l3.2-5.5c0.1,0.1-0.9,5.5-0.9,5.5s0.9-1.6,0.9-1.6
				l-0.2,1.6l0.3-0.4c0.1,0-0.2,0.4-0.2,0.4s0.1-0.3,0.2-0.3"/>
		</g>
		<g>
			<path class="st0" d="M61.3,34.5c0,0,8.7-16.2,9.2-15.9l-9.1,16.3c0.9,0.5,8.5-16.3,9.2-15.9l-8.9,17.7c0,0,8-16.7,9.2-16
				c0.3,0.2-11,16.8-8.9,18l9.2-16c0,0-10.5,15.8-9.2,16.6c0,0,7.4-17.1,9.3-16l-9,18.1c2.4,1.3,9.2-16.1,9.3-16.1
				c0.7,0.4-10.3,17.2-9,17.9c2.3,1.3,9.3-16.1,9.3-16.1l-9.3,16.3c0.6,0.3,9.3-16.1,9.3-16.1L63,46.1l9.4-16.2
				c0,0-10.8,17.9-9,18.9l9.4-16.3l-9.2,17.1c0,0,9.2-16.5,9.4-16.3c0,0-9.9,18.9-8.9,19.5c0.1,0.1,7.2-17.7,9.5-16.4
				c2,1.2-10.5,18.3-9.1,19.1c0,0,8.2-17.2,9.5-16.5c0,0-9.7,17.1-9.4,17.2C66,57,73.7,39.5,74,39.7c1.2,0.7-11.5,18.6-9,20
				c2,1.2,7.2-18,9.6-16.6c0,0-9.8,17.4-9.4,17.7c1.6,0.9,9.6-16.6,9.6-16.6S63.1,59.7,65.2,61l9.6-16.6c0.7,0.4-8.9,17.8-8.9,17.8
				l9.2-15.9c2.2,1.3-7.8,15.9-7.8,15.9l8.1-14c1.9,1.1-7.2,14-7.2,14l7.4-12.8c0.4,0.2-6.4,12.8-6.4,12.8s5.2-12.3,6.6-11.5
				c0,0-7.4,10.7-6,11.5c0.3,0.2,4.9-11.4,6.2-10.7l-4.4,10.6l4.8-8.3l-3.3,8.3c0,0,3.5-6.3,3.6-6.2c0,0-1.4,6.2-1.2,6.2
				c0.5-1.1,1.1-2.1,1.8-3.1c0,0-0.6,2.8-0.2,3.1c0.1,0,0.6-1,0.6-1v1c0,0,0.1-0.2,0.1-0.2"/>
			<path class="st0" d="M56.9,14.7c0,0,0.4-0.8,0.5-0.8l-4.7,12.2c1.7,1,7.1-12.2,7.1-12.2s-10,17.3-9.1,17.8l10.2-17.8l-12,22.5
				c2.7,1.5,12.4-22.8,13-22.5c0,0-16.5,23.5-13.9,25l14.4-25"/>
			<path class="st0" d="M34.1,34.4c0,0,5.5-13.1,7-12.2c1.3,0.8-6.3,14-6.3,14s6.9-12.2,7-12.1c0.1,0-8.1,12.3-6.6,13.2l7-12.1
				c0,0-7.5,12.2-6.8,12.6c0.1,0.1,7-12.1,7-12.1s-8,13.2-6.2,14.2c1.8,1,7-12.1,7-12.1c1.9,1.1-6.4,13.6-6.4,13.6
				c1.6,0.9,7-12.1,7-12.1L37,41.8l7-12.1c0,0-7.5,13-6.3,13.6c0.5,0.3,7-12,7-12c1.2,0.7-6.6,12.9-6.6,12.9c0.5,0.3,6.9-12,6.9-12
				l-6.3,14.1l7-12c0.4,0.2-7.6,12.2-6.6,12.8l6.9-12c0.7,0.4-5.9,14.6-5.9,14.6c0.6,0.4,5.3-12.9,6.9-11.9
				c0.5,0.3-5.9,14.5-5.9,14.5s22-38.7,22.2-38.5C68,16.6,41.2,54.3,42,54.7c0,0,18.1-43.9,23.6-40.8c6.1,3.5-28.3,40.2-22.5,43.5
				c5.3,3,22.2-45.2,25.1-43.5c0,0-29.9,41.6-24.7,44.6c2.7,1.6,25.2-44.9,25.7-44.6c0,0-27.2,44.1-25.5,45c6,3.5,26-45,26-45
				L44.5,61.3c0,0,19.9-47.7,25.6-44.4c6,3.5-26.1,44.2-25.6,44.5L70.2,17c0,0-27.2,44-25.2,45.2l25.4-44c0,0-27.7,41.3-23.1,44
				c1,0.6,8.5-15.4,8.8-15.3c1.6,0.9-9,14.5-7.6,15.2c0.5,0.3,4.2-8.7,4.8-8.3l-3.6,8.3l0.6-1"/>
			<path class="st0" d="M25.5,14.3l0.2-0.4L25,17.4c0.1,0,1.5-3.7,2-3.4l-2.3,5.3c0,0,2.5-5.6,3.1-5.3c1.1,0.6-4.1,11.6-4.1,11.6
				l6.7-11.6L23.5,26c1.3,0.8,7-12.1,7-12.1c1.5,0.9-7,12.3-7,12.3c1.6,0.9,5.3-13.3,7.1-12.3c0.1,0.1-7.1,12.5-7.1,12.5l7.2-12.5
				c0.9,0.5-7.6,14.8-7.6,14.8s6.9-15.8,8.5-14.8c0.5,0.3-8.7,15.5-8.7,15.5c1,0.6,8.8-15.7,9-15.5c0,0-10.4,16.8-9.3,17.4l10-17.4
				c0,0-10.6,19.6-10.4,19.7c2.4,1.4,9.6-20.7,11.4-19.7c2.6,1.5-14,18.3-11.4,19.8l11.4-19.8c3.4,2-12,23.4-12,23.4
				s10.7-25,13.5-23.4c1.1,0.6-14.3,24.2-13.7,24.5l14.1-24.5c0,0-17.5,22.6-14.1,24.5c0,0,13.5-24.9,14.2-24.5
				c4.1,2.4-15.2,30.5-15.2,30.5L38,14c0,0-23.3,32.3-18.4,35.2c0,0,16.2-34.8,19.1-33.1L19,52.5c0,0,17.5-36.6,20.2-35.1
				c0,0-22.4,35.6-20.5,36.7l20.8-36C41,19,18.4,56.3,18.4,56.3s18.8-38.8,21.5-37.2c0,0-22.2,37.8-21.6,38.1
				C22.1,59.4,40,19.4,40,19.4s-24.7,36.4-21.8,38s19.8-39,21.9-37.9L18,62.2l16-27.8c0.4,0.3-18.6,25.6-14.9,27.7
				c0,0,13.4-25.7,14.5-25c0,0-15.8,23.8-13.6,25c0.1,0,13.2-22.9,13.2-22.9s-14.6,21.4-12,22.9c0,0,11.2-20.1,11.5-20
				c1.8,1-10.2,19.6-9.6,20c2.2,1.2,8.5-15.6,8.9-15.4l-6.8,15.4c0,0,4.9-11.4,6.1-10.6S27,62.1,27,62.1c0.5,0.3,3.9-6.8,3.9-6.8
				s-3.1,6.3-2.3,6.8l1.7-3c0.3,0.2-1,2.7-0.6,3c0,0,0.2-0.4,0.2-0.4"/>
			<path class="st0" d="M95.4,37.4c0,0,4.6-9.6,5.3-9.2l-2,7.5c1,0.6,4.2-7.3,4.2-7.3s-3.3,7-3,7.2l4.1-7l-3.1,7.1
				c0.8,0.5,3.8-7,4-6.9c0,0-3.5,6.6-2.8,7l3.9-6.7l-3.8,6.8c0.9,0.5,3.9-6.7,3.9-6.7c0.9,0.5-4,6.5-3.1,7c0.4,0.3,3.6-7,3.9-6.8
				l-2.3,7.7l4-7l-3.2,7.9c0.1,0,3.5-7.8,4.2-7.4l-3.8,7.9l4.4-7.6c1.1,0.7-4,8.1-4,8.1c0.7,0.4,4.5-7.8,4.5-7.8l-3.7,9.7l5-8.6"/>
			<path class="st0" d="M93.5,47.7c0,0,3-7.2,3.8-6.7c0.6,0.3-2.1,6.7-2.1,6.7s3.8-6.7,3.8-6.7s-3.6,6.2-2.9,6.7l3.9-6.7
				c0,0-3.8,6.5-3.4,6.7c0.1,0,3.9-6.7,3.9-6.7s-2.6,6.2-1.9,6.7s3.9-6.7,3.9-6.7c0.9,0.5-2.4,6.7-2.4,6.7C101,48.2,104,41,104,41
				l-3.3,6.7l3.9-6.7c0,0-2.9,6.4-2.3,6.7c0.3,0.2,3.9-6.7,3.9-6.7c0.6,0.4-3,6.7-3,6.7c0.3,0.2,3.9-6.7,3.9-6.7l-1.8,6.7l8.2-14.2
				c0.5,0.3-8.6,13.6-7.4,14.2l7.9-13.7c0.6,0.4-5.3,13.6-5.3,13.6c0.6,0.4,5.2-12.6,6.8-11.7c0.4,0.2-4.2,11.7-4.2,11.7
				s5.3-9.3,5.4-9.3c1,0.6-3.3,9.2-3.2,9.3c0,0,3-7.3,3.9-6.7s-2.1,6.3-1.3,6.7c0.4,0.2,1.6-3.3,1.8-3.1c0,0-1.1,2.9-0.8,3.1
				c0.3-0.5,0.6-1,0.9-1.6c-0.2,0.5-0.3,1-0.5,1.6c0.1,0.1,0.5-0.9,0.5-0.9l-0.1,0.9c0,0,0.1-0.3,0.2-0.3"/>
			<path class="st0" d="M83.4,37.9l1.8-3.1L82,42.3c0.2,0.1,4.6-11.3,6-10.4l-6.2,12c0,0,6.2-13.8,7.5-13c1.6,0.9-7.5,17.4-7.5,17.4
				l11-18.9L82,48.5c2.1,1.2,11.1-19.3,11.1-19.3C95.5,30.6,82,48.6,82,48.6c2.5,1.5,8.4-21.1,11.2-19.4C93.5,29.3,82,48.8,82,48.8
				l11.3-19.6C94.6,29.9,82.2,50,82.2,50S92,27.5,94.4,28.9c0.6,0.4-12.1,21.5-12.1,21.5c1.4,0.8,12.2-21.8,12.5-21.6
				c0,0-13.7,21.6-12.2,22.5l13.1-22.7c0,0-13.1,23.6-12.8,23.8c3,1.7,11.7-25.2,13.8-23.9c3.1,1.8-17,22.1-13.8,24l13.8-24
				c3.7,2.1-13.2,25.4-13.2,25.4s11.7-27.3,14.7-25.6c1.2,0.7-15.1,25.6-14.6,25.9l15-26c0,0-18.5,23.9-15,26c0,0,14.3-26.4,15-26
				C102.5,30.4,85,56.3,85,56.3L93.8,41c0,0-9.9,15.3-7.7,16.6c0,0,8.1-17.5,9.6-16.6L87,58.6c0,0,8.8-18.3,10.1-17.6
				c0,0-10.6,17.4-9.7,17.9l6-10.4c0.4,0.2-5.4,10.8-5.4,10.8s4.8-9.9,5.5-9.5c0,0-5.4,9.6-5.2,9.7c0.9,0.5,5.4-9.3,5.4-9.3
				s-6,8.9-5.3,9.3s4.8-9.5,5.3-9.2l-3.5,10.4l4.6-8c0.1,0.1-4.8,7.8-3.7,8.4c0,0,4.1-7.8,4.4-7.6c0,0-4.4,7.6-3.7,8l4.3-7.5
				c0,0-4.2,7.5-3.3,8c0,0,4.2-7.5,4.3-7.5c0.7,0.4-2.8,7.8-2.6,7.9c1,0.6,4.1-7.5,4.3-7.4L96.3,63c0,0,3.6-8.3,4.5-7.8
				s-2.9,7.9-2.9,7.9c0.6,0.3,4.7-8.2,4.7-8.2s-4.2,7.7-3.2,8.3l5.6-9.7c0.9,0.5-4.7,9-3.4,9.7c1,0.6,6-11.3,6.4-11.1l-3.9,10.9
				c1.6,0.9,6.3-10.9,6.3-10.9c1,0.6-4,10-3.5,10.3s5-10.9,6-10.3l-5.1,10.1c0.2,0.2,5.8-10.1,5.8-10.1s-3.9,9.2-3.8,9.3l5.3-9.3
				c0,0-0.9,5.5-0.7,5.6c0.7-1.1,1.4-2.3,2-3.5"/>
			<path class="st0" d="M144.2,29.6c0,0,0.1-0.3,0.2-0.3c0.3,0.2-0.2,3.4-0.2,3.4s1.9-3.4,1.9-3.4s-2.5,4.7-1.9,5l2.9-5
				c0,0-3.2,5.6-2.9,5.8l3.3-5.8c0,0-4.5,8.6-3.3,9.3c1.3,0.7,5.4-9.3,5.4-9.3c1.6,0.9-5.3,11.7-5.3,11.7c1.6,0.9,6.8-11.8,6.8-11.8
				L144.2,42l7.3-12.6c0,0-8.5,13.4-7.3,14.1c0.6,0.4,8.1-14.1,8.1-14.1"/>
			<path class="st0" d="M122.9,29.6l0.2-0.3l-0.2,2.4c0,0,1.1-2.6,1.4-2.4l-1.4,3.8c0,0,1.8-4,2.2-3.8c0.7,0.4-2.2,8.1-2.2,8.1
				l4.7-8.1l-4.7,8.5c0.9,0.5,4.9-8.5,4.9-8.5c1,0.6-4.9,8.6-4.9,8.6c1.1,0.6,3.7-9.3,5-8.6c0.1,0.1-5,8.8-5,8.8l5.1-8.8
				c0.6,0.4-5,10.2-5,10.2s4.7-10.9,5.9-10.2C129.2,29.5,123,40,123,40c0.7,0.4,6-10.8,6.2-10.7s-6.9,11.4-6.1,11.9l6.9-11.9
				c0,0-6.8,13-6.6,13.1c1.6,0.9,6.4-13.8,7.6-13.1c1.7,1-9.3,12.1-7.6,13.1l7.6-13.1c2.2,1.2-7.2,15-7.2,15s6.9-16.1,8.7-15.1
				c0.7,0.4-8.9,15.3-8.6,15.5l9-15.5c0,0-11.1,14.4-9,15.6c0,0,8.6-15.8,9-15.6c2.4,1.4-8,18.1-8,18.1l9.5-16.5
				c0,0-11,16.7-8.5,18.1c0,0,7.2-15.5,8.5-14.8l-7.7,15.9c0,0,6.7-14.1,7.8-13.5c0,0-8.1,13.5-7.4,13.9l7.4-12.8
				c0.5,0.3-6.8,13.3-6.8,13.3s6-12.4,6.9-11.9c0,0-6.8,12-6.6,12.1c1.2,0.7,6.7-11.5,6.7-11.5s-7.5,11.1-6.6,11.6
				c0.9,0.5,6-11.8,6.6-11.4l-4.8,12.7l5.6-9.8c0.2,0.1-6.1,9.5-4.8,10.2c0,0,5-9.5,5.4-9.3c0,0-5.5,9.2-4.7,9.6l5.2-9.1
				c0,0-5.3,8.9-4.2,9.5c0,0,5-9,5.2-9c0.8,0.5-3.8,9.3-3.5,9.4c1.3,0.7,5-9.2,5.2-9.1l-3.4,9.4c0,0,4.3-10.1,5.4-9.4
				c1.1,0.7-3.9,9.6-3.9,9.6c0.8,0.4,6.1-10.5,6.1-10.5s-5.9,9.8-4.5,10.6l14.7-25.6c2.5,1.4-16,23.4-12.5,25.4
				c2.3,1.3,13.6-25.6,14.5-25.1l-11.8,24.7c2.9,1.7,11.8-20.5,11.8-20.5c2.4,1.4-13,23.5-11.6,24.3s9.7-21.1,11.6-20l-11.5,21.2
				c0.5,0.3,11.5-20,11.5-20S144,62,144.1,62l11.5-20c0,0-9.7,19.7-9,20.1s9-15.6,9-15.6s-7.9,14.7-6.5,15.6l6.5-11.3
				c0.4,0.3-6.4,10.7-5.4,11.3c0.3,0.2,4.6-9.7,5.4-9.3s-5.5,8.6-4.3,9.3c0.7,0.4,4.1-7.5,4.3-7.4c0,0-4,6.9-3.1,7.4l3.1-5.4
				c0,0-1.6,5.1-1,5.4c0.1,0.1,1-1.8,1-1.8c-0.3,0.6-0.5,1.2-0.7,1.8l0.7-1.2c0.1,0-0.3,1.1-0.2,1.2s0.2-0.3,0.2-0.3"/>
			<path class="st0" d="M180.4,39c0,0,4.4-10.4,5.6-9.7c0.9,0.5-3.8,9.6-3.8,9.6s5.5-9.7,5.6-9.7s-5.7,9-4.6,9.6l4.8-8.3
				c0,0-4.8,8-4.3,8.3c0.1,0,4.3-7.5,4.3-7.5s-3.2,7-2.3,7.5c0.6,0.3,2.3-4,2.3-4c0.5,0.3-0.9,4-0.9,4c0.2,0.1,0.9-1.5,0.9-1.5
				l-0.4,1.5l0.4-0.7c0,0-0.2,0.6-0.2,0.7c0.1-0.1,0.1-0.2,0.2-0.3"/>
			<path class="st0" d="M161,29.6l0.2-0.3l-0.2,2.4c0,0,1.1-2.6,1.4-2.4l-1.4,3.8c0,0,1.8-4,2.2-3.8c0.7,0.4-2.2,8.2-2.2,8.2
				l4.7-8.2l-4.7,8.5c0.9,0.5,4.9-8.5,4.9-8.5C167,30,161,38,161,38c1.1,0.7,3.8-9.4,5-8.7c0.1,0.1-5,8.9-5,8.9l5.1-8.9
				c0.6,0.3-4.6,9.6-4.6,9.6s4.5-10.3,5.6-9.6c0.3,0.2-5.3,9.6-5.3,9.6c0.6,0.4,5.4-9.7,5.6-9.6s-5.4,9.3-4.8,9.6l5.6-9.6
				c0,0-4.7,9.6-4.6,9.6c1.2,0.7,4.7-10.1,5.6-9.6c1.3,0.7-6.8,8.9-5.5,9.6l5.6-9.6c1.4,0.8-4.1,9.6-4.1,9.6s4.4-10.3,5.6-9.6
				c0.4,0.2-5.4,9.5-5.1,9.6l5.6-9.6c0,0-6.8,8.9-5.5,9.6c0,0,5.3-9.8,5.6-9.6c1.2,0.7-3.1,9.6-3.1,9.6l5.6-9.6
				c0,0-6.3,10.7-4.8,11.6c0,0,5.7-12.2,6.7-11.6l-6.7,14c0,0,7-14.6,8.1-14c0,0-8.8,14.7-8.1,15.2l8.8-15.2
				c0.6,0.3-8.8,16.7-8.8,16.7s8.4-17.4,9.6-16.7c0,0-9.9,17.1-9.6,17.3c1.8,1,10-17.3,10-17.3s-11.3,16.7-10,17.5s9.1-18,10.1-17.5
				l-10.1,21.8l12.6-21.8c0.4,0.2-15.7,21.9-12.6,23.8c0,0,12.7-24.3,13.7-23.8c0,0-15.9,24-13.7,25.3c0.1,0.1,14.6-25.3,14.6-25.3
				S165.5,55,168.7,56.8c0,0,15.5-27.8,15.9-27.5c2.8,1.6-16.8,30.4-15.9,30.9c2.8,1.6,11-20.3,11.5-20l-10.6,21.9
				c0,0,8.4-19.6,10.6-18.4s-9,18.4-9,18.4c1.2,0.7,9-15.5,9-15.5s-9.4,14.3-7.3,15.5l7.3-12.7c1.2,0.7-6.8,11.7-5.1,12.7
				c0.8,0.5,4.8-9.1,5.1-8.9l-2.7,8.9c0.7,0.4,2.7-4.7,2.7-4.7c0.4,0.2-0.4,4.5-0.2,4.6c0,0,0.2-0.4,0.2-0.3l-0.2,0.3l0.2-0.3"/>
			<path class="st0" d="M219.2,29.6c0,0,0.1-0.3,0.2-0.3l-0.1,3c0.4,0.2,1.8-3.1,1.8-3.1"/>
			<path class="st0" d="M206.5,40.6c0,0,5.2-12.5,6.7-11.6c0.9,0.5-3.8,9.7-3.8,9.7s5.3-9.3,5.3-9.2s-5.1,8.3-4.2,8.9l4.9-8.5
				c0,0-4.9,8.1-4.4,8.4c0.1,0,4.8-8.2,4.8-8.2s-3.7,7.7-2.7,8.2s4.2-7.3,4.2-7.3c1,0.6-3,7.6-3,7.6c0.9,0.5,3.9-6.8,3.9-6.8
				l-3.5,6.9l3.8-6.6c0,0-3.2,6.8-2.6,7.2s5.8-9.9,5.8-9.9c1,0.6-5.1,10.4-5.1,10.4c0.4,0.2,6-10.4,6-10.4L217.9,41l6.7-11.6
				c0.4,0.2-7.2,11.7-6.2,12.2l7.1-12.3c0.7,0.4-6,14.8-6,14.8c0.8,0.5,6.5-15.9,8.5-14.8c0.6,0.4-8.8,18.8-8.8,18.8
				s10.8-18.9,10.9-18.8"/>
			<path class="st0" d="M194.3,37.9l1.6-2.8l-3.1,7.5c0.2,0.1,4.8-11.7,6.3-10.9l-6.4,12.4c0,0,6.3-14.1,7.7-13.3
				c1.6,1-7.6,17.5-7.6,17.5l11.1-19.2l-11,19.5c2.2,1.2,11.3-19.6,11.3-19.6c2.4,1.4-11.3,19.7-11.3,19.7
				c2.6,1.5,8.6-21.4,11.4-19.7c0.2,0.1-11.4,19.9-11.4,19.9l11.5-19.9c1.3,0.8-11.2,21-11.2,21s9.9-22.8,12.4-21.4
				c0.6,0.4-12.3,21.8-12.3,21.8c1.4,0.8,12.3-22,12.6-21.8c0,0-13.8,21.8-12.3,22.7l13.1-22.7c0,0-13.1,23.7-12.9,23.8
				c3,1.7,11.7-25.2,13.8-24c3.1,1.8-17,22.2-13.8,24l13.9-24c3.7,2.1-13.2,25.4-13.2,25.4s11.7-27.2,14.7-25.4
				c1.2,0.7-15.1,25.6-14.5,25.9l14.9-25.9c0,0-18.4,23.9-14.9,25.9c0,0,14.2-26.3,14.9-25.9c3.7,2.2-13.7,27.9-13.7,27.9l16-27.7
				c0,0-18.9,26.8-14.9,29.1c0,0,6.4-13.8,7.6-13.1l-6.7,14c0,0,5.8-12.2,6.7-11.7c0,0-6.9,11.7-6.3,12l6.5-11.2
				c0.4,0.2-5.9,11.7-5.9,11.7s5.4-11.2,6.2-10.8c0,0-6.1,10.9-6,11c1.1,0.6,6.1-10.7,6.1-10.7s-6.9,10.3-6.1,10.7s5.6-11,6.1-10.6
				L201,61l5.7-9.8c0.2,0.1-6.2,9.6-4.8,10.3c0,0,5.2-9.9,5.6-9.7c0,0-5.8,9.6-4.9,10.1l5.6-9.6c0,0-5.6,9.3-4.5,10
				c0,0,5.3-9.5,5.5-9.5c0.9,0.5-4.1,9.8-3.8,10c1.3,0.8,5.3-9.7,5.5-9.5l-3.6,9.8c0,0,4.5-10.4,5.6-9.8c1.2,0.7-4.1,9.9-4.1,9.9
				c0.8,0.4,6-10.4,6-10.4s-5.6,9.5-4.3,10.2l6.9-12c1.1,0.6-6,10.7-4.5,11.6c2.8,1.6,16.7-31.4,17.8-30.8L216.3,61
				c3.6,2.1,14.5-25,14.5-25c2.4,1.4-12.9,23.5-11.5,24.3s9.7-21.1,11.6-20l-11.6,21.2c0.5,0.3,11.6-20,11.6-20
				s-10.5,20.6-10.4,20.7l10.4-18c0,0-8.4,17.7-7.8,18s7.8-13.5,7.8-13.5s-6.6,12.8-5.3,13.5l5.3-9.2c0.4,0.2-5,8.7-4.2,9.2
				c0.2,0.1,3.6-7.6,4.2-7.3s-4,6.7-3.1,7.3c0.5,0.3,3-5.4,3.1-5.4s-2.6,5-2,5.3l2-3.4c0,0-0.5,3.2-0.2,3.4c0,0,0.2-0.3,0.2-0.3"/>
		</g>
	</g>
</g>
</svg>
