<svg xmlns="http://www.w3.org/2000/svg" viewBox="0 0 251.79 127.71">
  <defs>
    <style>
      .cls-1 {
        fill: none;
        stroke: #fff;
        stroke-linecap: round;
        stroke-linejoin: round;
        stroke-width: 0.57px;
      }
    </style>
  </defs>
  <title>Asset 1</title>
  <g id="Layer_2" data-name="Layer 2">
    <g id="Layer_1-2" data-name="Layer 1">
      <g>
        <path class="cls-1" d="M20.47,117.17l.17-.3-.27,2.06a17,17,0,0,0,1.16-2S20,123,20.25,123.17L23.79,117l-3.48,6.12s2.91-6.48,3.53-6.12c0,0-4,5.8-3.48,6.12.4.23,2.76-6.57,3.53-6.12l-2,6.21s3.39-6.2,3.53-6.12c.66.38-1.32,6.24-1.32,6.24l3.53-6.12s-2.89,6-2.61,6.17c0,0,3.53-6.11,3.53-6.11.48.28-2.5,6.17-2.5,6.17.67.38,2.72-6.58,3.53-6.11.27.15-1.15,6.25-1.15,6.25.58.34,3.53-6.11,3.53-6.11.3.17-3.32,6-3.1,6.13,0,0,3-6.44,3.53-6.11.41.24-2.94,6.14-2.94,6.14C30,124,33,117.6,33,117.6c.75.43-4,5.72-3.3,6.1s3.51-6.08,3.51-6.08c.53.31-1.95,5.91-1.44,6.2s3.21-6.13,3.46-6c0,0-3.59,5.61-2.85,6,0,0,3.29-6.07,3.45-6,.77.45-1.87,5.91-1.37,6.2.27.16,3.45-6,3.45-6,.38.22-1.65,5.86-1,6.24s3.45-6,3.45-6l-1.82,6.15s3.3-6.07,3.45-6l-3.19,6c.25.14,3.15-6.16,3.45-6l-2.6,6.07,3.45-6L41,124.78c.5.29,3.46-6,3.46-6l-3.19,6s2.71-6.42,3.46-6S43.24,125,43.24,125c.81.47,2.92-6.2,3.42-5.92l-2.89,6s3.32-5.94,3.4-5.89c.76.44-1.94,5.79-1.22,6.2l3.4-5.88s-2,6-1.86,6.11c.85.49,2.82-6.22,3.4-5.88l-3.36,5.89s3.17-6,3.4-5.88c.43.25-2.22,5.91-1.86,6.11,0,0,2.68-6.3,3.4-5.89s-1.87,6.12-1.87,6.12c.55.32,2.92-6.17,3.4-5.89.18.11-3.21,5.8-2.92,6s3.4-5.89,3.4-5.89l-3.19,5.92s2.59-6.36,3.4-5.89c.27.16-3.6,5.51-2.77,6,0,0,2.85-6.21,3.4-5.89,0,0-2.56,5.77-2,6.11s3.4-5.9,3.4-5.9-1.38,6.12-1.2,6.22l1.3-2.26c.1.05-1.32,2.16-1.08,2.29s.8-1.91,1-1.78a9.51,9.51,0,0,0-.54,1.85c.11.06.38-.78.43-.75s-.32.72-.23.78l.19-.32"/>
        <path class="cls-1" d="M24.78,102.59s.17-.32.18-.32l-.24,1c.14.08.48-1.09.59-1,.63.37-1.45,5-.91,5.29.09.05,3-5.16,3-5.16s-2.07,5.95-1.48,6.29,3.55-6.15,3.55-6.15-3.4,5.81-2.72,6.2c.24.14,3.55-6.15,3.55-6.15L27,108.79l3.55-6.15-1.75,6.26s3.07-6.42,3.55-6.15c.08,0-3.21,6.17-3.21,6.17l3.55-6.14c.09.05-3.07,6.17-3.07,6.17.84.48,3.55-6.14,3.55-6.14.55.32-2.4,6.21-2.4,6.21.57.33,3.33-6.23,3.53-6.12l-3,6.15c.48.27,3.41-6.15,3.52-6.09S31.33,108.7,32,109.1c0,0,3.3-6.17,3.5-6.06l-1.78,6.18c.61.35,3.46-6,3.46-6s-3.68,5.71-3.12,6c0,0,2.88-6.34,3.46-6,0,0-3.6,5.63-2.84,6.07.39.22,3.46-6,3.46-6,.69.4-3.29,5.65-2.51,6.1,0,0,2.62-6.49,3.46-6,.65.37-2.08,6.15-2.08,6.15s2.68-6.45,3.46-6l-2.66,6.09,3.46-6c.41.24-2.62,6.09-2.62,6.09.85.49,2.93-6.3,3.46-6s-2.61,6.09-2.61,6.09l3.46-6-1.51,6.21c.72.42,3.42-5.93,3.42-5.93s-1.69,6.15-1.69,6.15,2.8-6.24,3.4-5.89-1.26,6.22-1.26,6.22c.83.48,3.41-5.9,3.41-5.9.53.31-3,5.63-2.21,6.08S50,104.88,50,104.88l-2.49,6c.19.11,3.15-6.06,3.41-5.91.66.38-1.16,6.25-1.16,6.25l2.93-5.08-1.09,5.36s.49-.87.5-.86-.39.83-.27.9l.2-.34"/>
        <path class="cls-1" d="M22.54,89.13s.15-.31.17-.3c.25.14-.39,4.86-.39,4.86L25.06,89c.57.33-1.56,6.09-1.56,6.09.39.22,2.93-6.29,3.46-6s-1.87,6.07-1.87,6.07,3.16-6.16,3.45-6c0,0-2.62,5.62-1.84,6.07.08,0,3.45-6,3.45-6l-1.95,6.06,3.45-6s-2.26,5.92-2,6c.86.49,3.45-6,3.45-6,.39.23-1.16,6.09-1.16,6.09s3.41-5.91,3.41-5.91l-1,6.08s3.1-6,3.39-5.87c.76.44-1.43,5.83-1,6.09s3-6.13,3.39-5.88c.71.41-2.74,5.93-2.74,5.93L40.81,90S38,95.84,38.21,96c.76.44,3.39-5.88,3.39-5.88.29.17-2.67,5.94-2.67,5.94.52.3,2.84-6.2,3.39-5.88,0,0-2.8,5.67-2.26,6l3.4-5.88s-3.5,5.51-2.75,5.94l3.4-5.88c.53.31-1.08,6.08-1.08,6.08s3.37-5.83,3.37-5.83-3.21,5.77-3,5.86c.45.26,3.36-5.83,3.36-5.83s-.94,6.1-.94,6.1l3.36-5.82-1.95,6s2.63-6.24,3.36-5.82c0,0-3,5.63-2.51,5.92.16.09,2.72-6.19,3.36-5.82,0,0-3.91,5.46-3.25,5.84l3.36-5.82c.38.22-3.44,5.43-2.6,5.92,0,0,2.89-6.1,3.36-5.83.27.15-1,6.12-1,6.12.84.49,3.37-5.84,3.37-5.84l-1.46,6.07c.22.13,1.73-4.11,2.21-3.83s-.87,3.88-.6,4c0,0,.19-.33.19-.33"/>
        <path class="cls-1" d="M91.54,110.39c.58.34,3.31-5.73,3.31-5.73s-1.71,5.48-1.28,5.73c0,0,3.24-5.77,3.31-5.73l-3.22,5.73L97,104.65c.42.24-2.46,5.6-2.22,5.73L98,104.65c.09.05-2.46,5.61-2.24,5.73.67.39,3.19-5.8,3.31-5.73s-1.63,5.73-1.63,5.73,2.56-6.17,3.31-5.73c0,0-3.52,5.32-2.81,5.73s3.15-5.83,3.31-5.73c.68.39-1.79,5.36-1.15,5.73,0,0,3.09-5.86,3.31-5.73l-1.13,5.73c.31.18,3.31-5.73,3.31-5.73s-1.06,5.65-.92,5.73c.45.26,2.59-4.49,2.59-4.49l-2.4,4.49,2.4-4.16a44.14,44.14,0,0,0-2,4.16,34.31,34.31,0,0,0,2-3.5s-.18,3.48-.15,3.5.16-.28.16-.28"/>
        <path class="cls-1" d="M72.8,122.27s.13-.23.13-.23.2,1.73.41,1.85c0,0,1-2.47,1.32-2.28l-.4,5s3.14-6.28,3.51-6.07c0,0-3.3,6.7-3.3,6.7.28.16,4-7,4-7s-2.55,6.7-2.14,6.94c.83.48,4.58-9.5,5.26-9.11,0,0-4.86,9-4.86,9s5.41-11.29,6.24-10.81c.31.18-6.14,10.79-6.14,10.79,1.83,1.06,11.09-27.73,14.78-25.6l-13,25.14,13-22.46-10.9,21.68c1.73,1,11.73-21.51,12.25-21.21,0,0-13.1,19.25-10.77,20.59,2,1.16,11.89-20.6,11.89-20.6S80.53,123.73,82.7,125c.82.47,11.73-20.32,11.73-20.32l-11,19.89s7.42-13.8,7.83-13.56c.13.08-6.4,11.67-5.71,12.07,1.16.67,4.68-9.2,5.15-8.93,0,0-3.48,6.19-2.93,6.51.37.21,1.7-2.95,1.7-2.95"/>
        <path class="cls-1" d="M91.8,96.05l3.92-6.79-2.88,6.58c.32.18,4-6.91,4-6.91s-1.63,6.21-1.35,6.37l4.17-7.22-4.11,7.21S99,87.62,99.72,88c0,0-4.76,6.84-4.11,7.21.47.27,3.26-7.77,4.18-7.24l-2.34,6.86s4-7.24,4.13-7.15c.67.39-1.37,6.32-1.37,6.32l2.21-3.83a25.68,25.68,0,0,0-1.05,3.48s1.41-2.44,1.41-2.44a9.19,9.19,0,0,1-.12,2c.1.06.4-1,.51-.89a5.92,5.92,0,0,1,0,.73s.14-.24.14-.24"/>
        <path class="cls-1" d="M66.06,104.94s.16-.29.16-.28l-.16.91c.12.07.43-1,.53-.91.55.32-1,4.32-.51,4.59.08,0,2.65-4.59,2.65-4.59s-1.69,5.43-1.16,5.73c.68.4,3.31-5.74,3.31-5.74s-3.08,5.37-2.45,5.73c.22.13,3.31-5.74,3.31-5.74l-3,5.73L72,104.65l-1.44,5.73s2.87-6,3.31-5.74c.08,0-3,5.73-3,5.73l3.31-5.74c.08,0-2.81,5.73-2.81,5.73.78.45,3.31-5.74,3.31-5.74.51.29-2.12,5.73-2.12,5.73.54.31,3.12-5.84,3.31-5.74l-2.75,5.73c.45.26,3.21-5.79,3.31-5.74s-3.23,5.36-2.59,5.73c0,0,3.13-5.84,3.31-5.74l-1.52,5.73c.59.34,3.31-5.74,3.31-5.74s-3.48,5.43-2.95,5.73c0,0,2.75-6.06,3.31-5.74,0,0-3.36,5.32-2.65,5.73.37.21,3.31-5.74,3.31-5.74.64.37-3,5.31-2.29,5.73,0,0,2.5-6.2,3.31-5.74.6.35-1.84,5.73-1.84,5.73s2.57-6.17,3.31-5.74l-2.46,5.73,3.31-5.74c.38.22-2.42,5.73-2.42,5.73.81.47,2.81-6,3.31-5.74s-2.4,5.73-2.4,5.73l12-20.72L84,110.37c1.61.93,7.66-13.27,7.66-13.27s-7.23,15.74-7.23,15.74,6-13.29,7.25-12.55-7.9,14.54-7.9,14.54c1.92,1.11,7.9-13.69,7.9-13.69"/>
        <path class="cls-1" d="M71.23,91.79s.14-.3.17-.29c.23.13-.17,4.48-.17,4.48l2.61-4.52c.54.31-1.36,5.75-1.36,5.75.37.22,2.83-6.07,3.34-5.78s-1.69,5.76-1.69,5.76,3.06-6,3.34-5.79c0,0-2.4,5.34-1.67,5.77.07,0,3.38-5.85,3.38-5.85l-1.81,5.81,3.4-5.89S78.63,97,78.85,97.09c.85.49,3.42-5.92,3.42-5.92.38.22-1,5.84-1,5.84S84.75,91,84.75,91l-.86,5.9s3.24-6.33,3.55-6.15c1.08.62-2.94,8-2.32,8.39.8.46,4.42-9.16,5.07-8.78,1.21.7-5.07,10-5.07,10L90.94,90.2s-6.32,11.21-5.81,11.51c1.51.87,6.72-11.64,6.72-11.64.64.37-6.71,12.94-6.71,12.94,1.16.67,6.34-13.83,7.57-13.12,0,0-8.94,13.67-7.57,14.46L93.6,89.7"/>
        <path class="cls-1" d="M127.45,105.87c.41.24,2.33-4,2.33-4s-2,5.93-1.55,6.2c0,0,3.09-5.51,3.16-5.47l-3.09,5.5,3.16-5.47c.43.25-2.53,5.72-2.3,5.86l3.15-5.46c.09.05-2.53,5.72-2.31,5.85.64.37,3-5.53,3.15-5.46s-1.82,6.06-1.82,6.06,2.43-5.87,3.15-5.46c0,0-3.45,5.24-2.75,5.64s3-5.54,3.15-5.45c.75.43-2.16,5.85-1.45,6.26,0,0,2.94-5.58,3.15-5.46l-1.44,6.27c.3.17,3.15-5.46,3.15-5.46s-1.44,6.28-1.29,6.37c.54.31,3.16-5.47,3.16-5.47l-3,5.54,3.16-5.47s-3,5.51-2.86,5.62,3.16-5.47,3.16-5.47-1.43,6.33-1.37,6.36c.79.45,3.17-5.48,3.17-5.48s-3.27,5.4-2.79,5.67l3.17-5.49c.75.43-3.64,5.2-2.95,5.6,0,0,2.59-5.82,3.17-5.49"/>
        <path class="cls-1" d="M119,122s.14-.24.14-.24,0,2.05.21,2.19c0,0,1-2.6,1.39-2.4l-.79,5.71s3.15-6.29,3.51-6.08c0,0-3.06,6.28-3.06,6.28.25.15,3.68-6.37,3.68-6.37s-2,5.91-1.66,6.12c.6.35,3.32-6.87,3.81-6.59,0,0-3.43,6.54-3.43,6.54s3.32-6.93,3.83-6.63c.19.11-3.73,6.62-3.73,6.62.48.27,2.88-7.2,3.84-6.64l-2.16,6.43,3.94-6.83-2.14,6.51c.59.34,4-7.27,4.14-7.17,0,0-3.63,6.48-2.88,6.92s4.27-7.39,4.27-7.39-4.68,6.87-3.91,7.32c.3.17,4.3-7.45,4.3-7.45l-3.74,7.33s4.18-7.76,4.41-7.63c.08,0-3.37,7.08-3,7.32,1.06.61,4.3-8.44,4.73-8.19,0,0-3.79,7.34-3.14,7.71,1.11.64,5.15-8.93,5.15-8.93s-5.48,8.08-4.4,8.7c.61.35,4.84-9.84,5.47-9.47,0,0-4.9,9-4.51,9.18,0,0,4.86-11.6,6.24-10.81.24.14-4.94,10.2-4.81,10.28l17.29-29.94c2.1,1.21-13.75,28.33-13.75,28.33S150,98.24,151.81,99.3c1.58.91-12.07,19.78-9.88,21,0,0,8.84-15.83,9.07-15.7.68.39-7.36,14.32-7.36,14.32.79.46,6.22-11.73,6.64-11.49,0,0-5.2,8.51-4.41,9,.24.14,2.92-5.45,3.09-5.35l-2.87,5.1s2-5.07,2.7-4.67"/>
        <path class="cls-1" d="M128.69,97.09l3.3-5.72-2.38,5.72c.26.15,3.3-5.72,3.3-5.72s-1.22,5.58-1,5.72l3.3-5.72L132,97.08s2.72-6.06,3.3-5.72c0,0-3.76,5.42-3.24,5.72s2.58-6.14,3.3-5.72l-1.69,5.72s3.17-5.8,3.3-5.72c.6.35-1,5.72-1,5.72l3.3-5.72s-2.61,5.57-2.35,5.72c0,0,3.3-5.72,3.3-5.72.44.26-2.24,5.72-2.24,5.72.62.36,2.54-6.16,3.3-5.72.24.14-.84,5.72-.84,5.72.55.32,3.3-5.72,3.3-5.72.28.16-3.07,5.61-2.87,5.72,0,0,2.77-6,3.3-5.72.38.22-2.7,5.72-2.7,5.72.48.28,3.3-5.72,3.3-5.72.7.4-3.7,5.37-3.08,5.72s3.3-5.72,3.3-5.72c.49.28-1.63,5.45-1.16,5.72s3.07-5.86,3.31-5.73c0,0-3.37,5.32-2.67,5.72,0,0,3.15-5.81,3.31-5.73,1.09.63-3.44,8.16-2.73,8.56.39.23,4.94-8.56,4.94-8.56,1,.59-8.08,14.54-6.36,15.53,1.56.9,8.46-14.65,8.46-14.65l-8.68,15.37s8.29-15.26,8.68-15"/>
        <path class="cls-1" d="M114.86,107.34s.34-.63.36-.62l-.11.83c.27.15,1-2.14,1.16-2,.39.22-.07,3.07.26,3.26S129.06,87.1,129.06,87.1,115.65,108.71,118,110c2.64,1.53,12.78-22.14,12.78-22.14S115.95,109,118.53,110.54c.8.46,12-20.7,12-20.7L118.72,110.7l11.66-20.19-7.95,17s8.08-16.87,9.32-16.15c.2.11-7.83,14.18-7.83,14.18l3.69-6.4c.09.05-3.4,6-3.4,6,.75.43,3.16-5.48,3.16-5.48"/>
        <path class="cls-1" d="M124.71,87.28s.21-.43.24-.42c.43.25-2.23,8.06-2.23,8.06L127.29,87c1.15.66-6,11.13-6,11.13.72.41,5.44-11.66,6.41-11.1"/>
        <path class="cls-1" d="M163.62,103.74s.73-1.51.84-1.45c.32.18-1.1,6.1-1.1,6.1l3-5.15c.55.32-1.45,5.91-1.45,5.91.33.19,2.52-5.4,3-5.14s-1.7,5.77-1.7,5.77,2.82-5.5,3.09-5.34c0,0-2.55,5.53-1.78,6,.07,0,3.42-5.93,3.42-5.93l-2.07,6.28,3.62-6.28s-2.46,6.24-2.22,6.37c.91.53,3.68-6.38,3.68-6.38.41.24-1.32,6.38-1.32,6.38s3.68-6.38,3.68-6.38l-1.13,6.38s3.37-6.56,3.68-6.38c.8.46-1.62,6.11-1.16,6.38s3.21-6.66,3.68-6.38c.76.44-3,6.38-3,6.38l3.69-6.38s-3.13,6.22-2.85,6.38c.83.48,3.69-6.38,3.69-6.38.31.18-2.93,6.38-2.93,6.38.57.33,3.08-6.73,3.69-6.38,0,0-3.07,6.05-2.49,6.38l3.69-6.39s-3.81,5.92-3,6.39l3.69-6.39c.56.32-1.26,6.39-1.26,6.39s3.69-6.39,3.69-6.39-3.52,6.29-3.35,6.39c.49.28,3.69-6.39,3.69-6.39s-1.11,6.39-1.11,6.39l3.69-6.39-2.18,6.39s2.89-6.85,3.69-6.39c0,0-3.34,6.07-2.78,6.39.18.1,3-6.8,3.69-6.39,0,0-4.3,6-3.57,6.39l3.69-6.39c.41.24-3.78,5.87-2.87,6.39,0,0,3.18-6.69,3.69-6.39.28.16-1.12,6.39-1.12,6.39.92.53,3.69-6.4,3.69-6.4l-1.65,6.4c.37.22,2.89-6.86,3.69-6.4.57.33-1.87,6.15-1.44,6.4.85.49,3.7-6.4,3.7-6.4s-3.75,6-3.06,6.4l3.7-6.4c.35.2-2.35,6.39-2.34,6.4l3.17-5.48c.09.05-.89,5.48-.89,5.48s.87-1.58.9-1.56l-.25,1.56.26-.44c.06,0-.19.42-.16.44s.12-.3.16-.28"/>
      </g>
      <g>
        <path class="cls-1" d="M43.58,45.08s8.67-16.18,9.17-15.89L43.64,45.48c.88.51,8.45-16.32,9.18-15.9L43.92,47.29s8-16.65,9.21-15.95c.29.17-10.95,16.8-8.9,18l9.24-16S43,49.12,44.31,49.89c0,0,7.44-17.07,9.25-16L44.61,51.95C47,53.3,53.8,35.81,53.9,35.87c.72.41-10.28,17.19-9,17.92,2.31,1.33,9.31-16.13,9.31-16.13L44.91,54c.57.33,9.31-16.13,9.31-16.13L45.32,56.68l9.36-16.21s-10.75,17.87-9,18.91l9.4-16.28L45.84,60.16S55,43.7,55.26,43.85c0,0-9.88,18.94-8.94,19.48.13.08,7.25-17.67,9.46-16.39,2,1.16-10.49,18.29-9.06,19.12,0,0,8.23-17.21,9.51-16.47,0,0-9.66,17.05-9.4,17.2,1.45.84,9.21-16.67,9.52-16.49,1.25.72-11.5,18.58-9,20,2,1.15,7.15-18,9.58-16.59,0,0-9.85,17.42-9.41,17.67,1.59.92,9.59-16.62,9.59-16.62S45.42,70.33,47.55,71.57l9.6-16.62c.69.4-8.87,17.79-8.87,17.79s9.19-15.92,9.19-15.92c2.2,1.27-7.75,15.92-7.75,15.92l8.08-14c1.92,1.11-7.21,14-7.21,14S58,59.91,58,59.91c.36.21-6.41,12.82-6.41,12.82s5.2-12.32,6.64-11.49c0,0-7.37,10.7-6,11.49.3.18,4.87-11.39,6.15-10.65L54,72.72l4.8-8.32L55.5,72.72s3.45-6.34,3.61-6.25c0,0-1.36,6.17-1.22,6.25a23.53,23.53,0,0,1,1.77-3.06s-.62,2.83-.24,3.06c.07,0,.57-1,.58-1v1s.1-.23.13-.22"/>
        <path class="cls-1" d="M39.27,25.31s.4-.84.46-.8L35,36.74c1.74,1,7.06-12.23,7.06-12.23S32.1,41.8,33,42.29L43.22,24.51,31.2,47c2.66,1.53,12.38-22.83,13-22.48,0,0-16.55,23.47-13.92,25l14.43-25"/>
        <path class="cls-1" d="M16.39,45s5.47-13.06,7-12.17c1.32.76-6.31,14-6.31,14s6.92-12.19,7-12.14S16,47,17.5,47.86l7-12.13S16.95,47.9,17.68,48.32c.1.06,7-12.12,7-12.12s-8,13.18-6.19,14.2,7-12.09,7-12.09c1.89,1.09-6.41,13.57-6.41,13.57,1.63.94,7-12.07,7-12.07l-6.76,12.6,7-12.06s-7.5,13-6.35,13.63c.53.3,7-12,7-12,1.23.71-6.6,12.93-6.6,12.93.47.27,6.94-12,6.94-12L21,57,28,45c.41.24-7.62,12.25-6.6,12.84l6.92-12c.67.38-5.9,14.6-5.9,14.6.64.37,5.26-12.89,6.9-11.94.49.28-5.88,14.55-5.88,14.55s22-38.66,22.25-38.54c4.68,2.7-22.18,40.34-21.37,40.81,0,0,18.14-43.94,23.56-40.81C54,28,19.62,64.71,25.34,68c5.27,3,22.2-45.21,25.13-43.52,0,0-29.94,41.55-24.72,44.57,2.68,1.55,25.17-44.89,25.73-44.57,0,0-27.24,44.06-25.55,45,6.05,3.5,26-45,26-45L26.84,71.86s19.88-47.7,25.62-44.38c6,3.49-26.07,44.18-25.6,44.45L52.48,27.56s-27.17,44-25.2,45.17l25.4-44S25,70.06,29.58,72.72c1,.56,8.51-15.43,8.81-15.26,1.62.93-9,14.47-7.64,15.25.5.29,4.17-8.69,4.81-8.33L32,72.71l.56-1"/>
        <path class="cls-1" d="M7.85,24.92l.23-.4-.75,3.43c.06,0,1.51-3.7,2-3.43L7,29.84s2.52-5.65,3.08-5.33C11.15,25.13,6,36.07,6,36.07l6.68-11.56L5.87,36.58c1.34.77,7-12.07,7-12.07,1.5.87-7,12.29-7,12.29,1.59.92,5.34-13.31,7.1-12.29.15.09-7.14,12.54-7.14,12.54L13,24.51C13.93,25,5.4,39.3,5.4,39.3s6.86-15.76,8.54-14.8c.46.26-8.67,15.54-8.67,15.54,1,.6,8.76-15.67,9-15.55,0,0-10.43,16.76-9.29,17.42L15,24.5S4.35,44.1,4.57,44.22C7,45.64,14.18,23.48,16,24.5c2.59,1.5-14,18.28-11.4,19.81L16,24.5c3.41,2-12.05,23.43-12.05,23.43s10.74-25,13.53-23.44C18.58,25.14,3.21,48.64,3.77,49L17.89,24.5S.42,47.09,3.75,49c0,0,13.48-24.91,14.16-24.52C22,26.86,2.74,55,2.74,55L20.3,24.56S-3,56.88,1.94,59.71c0,0,16.16-34.83,19.12-33.12L1.37,63.07S18.87,26.45,21.6,28c0,0-22.41,35.62-20.52,36.71l20.78-36C23.28,29.55.72,66.89.72,66.89s18.75-38.82,21.5-37.23c0,0-22.2,37.76-21.64,38.08C4.41,70,22.35,30,22.35,30S-2.36,66.38.52,68,20.36,29,22.4,30.15L.28,72.75,16.3,45c.44.26-18.57,25.6-14.86,27.74,0,0,13.39-25.66,14.46-25,0,0-15.75,23.78-13.55,25,.08,0,13.24-22.93,13.24-22.93S1,71.2,3.62,72.74c0,0,11.23-20.12,11.52-20,1.79,1-10.16,19.6-9.56,19.95,2.16,1.25,8.49-15.6,8.88-15.38L7.62,72.72s4.88-11.36,6.14-10.63S9.28,72.72,9.28,72.72c.51.29,3.9-6.76,3.9-6.76s-3.13,6.26-2.27,6.76l1.71-3c.26.15-1,2.73-.6,3,0,0,.21-.39.22-.38"/>
        <path class="cls-1" d="M77.71,48s4.58-9.63,5.31-9.2l-2,7.45c1,.6,4.2-7.27,4.2-7.27s-3.33,7-3,7.16l4.07-7-3.13,7.08c.81.47,3.78-7,4-6.86,0,0-3.53,6.61-2.83,7l3.89-6.73-3.75,6.77c.94.55,3.89-6.74,3.89-6.74.87.5-4,6.52-3.11,7,.45.26,3.59-7,3.92-6.79l-2.31,7.68,4-7-3.15,7.92c.09.05,3.54-7.78,4.25-7.37L88.15,49l4.37-7.58c1.14.66-4,8.11-4,8.11.67.39,4.49-7.78,4.49-7.78l-3.72,9.7,5-8.65"/>
        <path class="cls-1" d="M75.83,58.28s3-7.17,3.85-6.68c.6.35-2.06,6.67-2.06,6.67s3.8-6.71,3.85-6.68-3.63,6.25-2.9,6.67l3.86-6.68S78.65,58.05,79,58.27c.05,0,3.86-6.68,3.86-6.68S80.26,57.81,81,58.27s3.86-6.68,3.86-6.68c.9.52-2.43,6.67-2.43,6.67.9.52,3.86-6.68,3.86-6.68L83,58.26l3.86-6.68S84,57.95,84.51,58.26c.29.17,3.86-6.68,3.86-6.68.62.36-3,6.68-3,6.68.26.15,3.86-6.68,3.86-6.68l-1.82,6.67L95.64,44c.46.26-8.55,13.59-7.41,14.25L96.11,44.6c.62.36-5.34,13.64-5.34,13.64.63.36,5.15-12.62,6.75-11.69.39.22-4.23,11.68-4.23,11.68s5.31-9.31,5.36-9.29c1,.57-3.34,9.18-3.16,9.28,0,0,3-7.26,3.89-6.74s-2.08,6.27-1.27,6.74c.38.22,1.6-3.26,1.81-3.13,0,0-1.13,2.94-.8,3.13a12.76,12.76,0,0,0,.91-1.58,15,15,0,0,0-.46,1.58c.12.07.5-.87.5-.87l-.12.87s.12-.28.15-.26"/>
        <path class="cls-1" d="M65.68,48.48l1.77-3.07-3.08,7.47c.17.1,4.58-11.28,6-10.44l-6.16,12s6.16-13.79,7.51-13c1.63.94-7.47,17.35-7.47,17.35L75.2,39.87,64.31,59.08C66.45,60.32,75.44,39.8,75.44,39.8c2.38,1.37-11.12,19.42-11.12,19.42,2.52,1.45,8.44-21.05,11.23-19.44.23.13-11.21,19.6-11.21,19.6L75.67,39.74c1.28.74-11.14,20.89-11.14,20.89s9.82-22.56,12.22-21.17C77.38,39.83,64.63,61,64.63,61c1.43.83,12.18-21.79,12.48-21.61,0,0-13.7,21.63-12.22,22.49L78,39.13S64.95,62.77,65.21,62.92C68.19,64.64,76.86,37.76,79,39c3.13,1.81-17,22.11-13.79,24L79.05,39c3.7,2.14-13.2,25.43-13.2,25.43S77.56,37.13,80.6,38.88c1.18.68-15.13,25.58-14.55,25.92L81,38.85s-18.51,23.93-15,26c0,0,14.28-26.39,15-26C84.82,41,67.29,66.9,67.29,66.9l8.82-15.28s-9.93,15.31-7.67,16.62c0,0,8.11-17.48,9.6-16.63L69.28,69.17s8.77-18.35,10.14-17.56c0,0-10.58,17.39-9.67,17.92l6-10.37c.39.23-5.38,10.83-5.38,10.83s4.79-9.91,5.49-9.51c0,0-5.39,9.61-5.25,9.69.94.54,5.36-9.28,5.36-9.28s-6,8.93-5.27,9.34S75.51,60.75,76,61L72.48,71.42l4.62-8c.13.07-4.79,7.8-3.71,8.42,0,0,4.08-7.83,4.41-7.64,0,0-4.38,7.58-3.7,8,0,0,4.33-7.5,4.33-7.5s-4.21,7.46-3.33,8c0,0,4.2-7.52,4.31-7.46.67.39-2.83,7.77-2.6,7.9,1,.6,4.1-7.54,4.29-7.43l-2.52,7.88s3.56-8.3,4.48-7.76-2.91,7.91-2.91,7.91c.61.35,4.73-8.19,4.73-8.19s-4.23,7.69-3.17,8.31l5.62-9.74c.91.52-4.71,9-3.43,9.74,1,.59,6-11.3,6.4-11.08L86.45,73.65c1.57.91,6.31-10.93,6.31-10.93,1,.56-4,10-3.48,10.33s5-10.91,6-10.35l-5.1,10.06C90.42,72.92,96,62.7,96,62.7S92.1,71.92,92.15,72l5.35-9.26s-.91,5.47-.73,5.57a33,33,0,0,0,2-3.49"/>
        <path class="cls-1" d="M126.48,40.22s.13-.3.16-.28c.29.17-.16,3.37-.16,3.37s1.92-3.39,1.95-3.37-2.48,4.71-1.94,5l2.9-5s-3.23,5.61-2.9,5.8c0,0,3.35-5.8,3.35-5.8s-4.47,8.62-3.34,9.27c1.27.74,5.36-9.28,5.36-9.28,1.63.94-5.35,11.74-5.35,11.74,1.58.91,6.78-11.75,6.78-11.75l-6.78,12.63,7.29-12.63S125.3,53.33,126.51,54c.62.36,8.15-14.11,8.15-14.11"/>
        <path class="cls-1" d="M105.2,40.22l.16-.28-.16,2.42s1.06-2.62,1.4-2.42l-1.4,3.76s1.78-4,2.17-3.76c.73.42-2.15,8.12-2.15,8.12l4.69-8.13-4.68,8.46c.94.54,4.88-8.46,4.88-8.46,1,.61-4.87,8.6-4.87,8.6,1.11.64,3.73-9.31,5-8.6.1.06-5,8.76-5,8.76l5.06-8.76c.62.36-5,10.21-5,10.21s4.73-10.88,5.89-10.21c.31.18-5.87,10.69-5.87,10.69.71.41,6-10.77,6.17-10.69s-6.86,11.43-6.09,11.87l6.85-11.87s-6.76,13-6.62,13.08c1.63.94,6.38-13.77,7.56-13.09,1.72,1-9.3,12.12-7.55,13.14l7.58-13.14c2.16,1.25-7.21,15-7.21,15s6.9-16.09,8.69-15.05c.7.41-8.91,15.34-8.56,15.54l9-15.54s-11.08,14.35-9,15.57c0,0,8.56-15.82,9-15.57,2.38,1.37-8,18.08-8,18.08l9.53-16.51s-11,16.69-8.53,18.12c0,0,7.21-15.54,8.53-14.78L108.93,60.7s6.74-14.11,7.79-13.5c0,0-8.08,13.53-7.37,13.94l7.38-12.79c.48.28-6.8,13.3-6.8,13.3s6-12.39,6.86-11.89c0,0-6.81,12-6.64,12.09,1.17.68,6.66-11.54,6.66-11.54s-7.46,11.1-6.58,11.61,6-11.8,6.61-11.44L112,63.2l5.64-9.76c.16.09-6.07,9.45-4.75,10.22,0,0,5-9.51,5.36-9.28,0,0-5.48,9.16-4.66,9.64,0,0,5.24-9.08,5.24-9.08s-5.28,8.89-4.21,9.51c0,0,5-9,5.17-8.95.82.47-3.77,9.28-3.49,9.44,1.28.74,5-9.23,5.25-9.1l-3.4,9.41s4.32-10.08,5.44-9.43-3.88,9.59-3.88,9.59c.79.45,6.06-10.5,6.06-10.5s-5.85,9.78-4.47,10.57L136,39.92c2.49,1.44-16,23.41-12.49,25.44,2.32,1.34,13.63-25.59,14.49-25.1L126.23,64.95C129.17,66.65,138,44.49,138,44.49c2.41,1.39-13,23.49-11.55,24.3s9.68-21.09,11.55-20L126.5,70C127,70.31,138,50,138,50s-11.68,22.55-11.53,22.63l11.54-20s-9.66,19.68-9,20.08,9-15.56,9-15.56-7.93,14.73-6.5,15.56l6.5-11.26c.44.26-6.36,10.69-5.38,11.26.29.17,4.63-9.74,5.38-9.31s-5.46,8.63-4.27,9.31c.71.41,4.12-7.5,4.28-7.41,0,0-4,6.92-3.14,7.4,0,0,3.14-5.45,3.14-5.45s-1.62,5.11-1,5.44c.15.08,1-1.84,1-1.82a9.9,9.9,0,0,0-.69,1.82l.69-1.2c.06,0-.29,1.13-.16,1.2s.16-.28.16-.28"/>
        <path class="cls-1" d="M162.71,49.57s4.35-10.37,5.58-9.66c.89.52-3.79,9.65-3.79,9.65s5.5-9.7,5.58-9.66-5.69,9-4.62,9.65l4.77-8.26s-4.79,8-4.32,8.26c.06,0,4.32-7.49,4.32-7.49s-3.2,7-2.31,7.48c.55.32,2.32-4,2.32-4,.52.3-.89,4-.89,4,.21.12.89-1.55.89-1.55l-.38,1.55.38-.66s-.21.63-.16.66a2.49,2.49,0,0,0,.16-.28"/>
        <path class="cls-1" d="M143.34,40.22l.16-.28-.16,2.42s1.06-2.61,1.4-2.42l-1.4,3.76s1.78-4,2.17-3.76c.73.42-2.17,8.16-2.17,8.16l4.71-8.16-4.71,8.52c.95.55,4.92-8.52,4.92-8.52,1.06.61-4.92,8.68-4.92,8.68,1.12.65,3.77-9.4,5-8.68.1.06-5,8.85-5,8.85l5.11-8.85c.58.34-4.65,9.64-4.65,9.64s4.47-10.27,5.57-9.64c.28.16-5.26,9.64-5.26,9.64.64.37,5.43-9.71,5.56-9.64s-5.42,9.28-4.8,9.64l5.56-9.64s-4.73,9.57-4.62,9.63c1.2.69,4.69-10.13,5.56-9.63,1.26.73-6.81,8.89-5.52,9.63l5.56-9.63c1.35.78-4.08,9.63-4.08,9.63s4.41-10.29,5.56-9.63c.43.25-5.36,9.5-5.14,9.63l5.56-9.63s-6.84,8.87-5.53,9.63c0,0,5.29-9.78,5.56-9.63,1.21.7-3.12,9.62-3.12,9.62l5.55-9.62S149.44,50.64,151,51.53c0,0,5.66-12.21,6.7-11.61l-6.7,14s7-14.61,8.07-14c0,0-8.84,14.71-8.07,15.15l8.75-15.15c.61.35-8.75,16.67-8.75,16.67s8.4-17.38,9.62-16.67c0,0-9.88,17.12-9.62,17.27,1.76,1,10-17.27,10-17.27S149.68,56.64,151,57.4s9.15-18,10.09-17.48L151,61.68l12.56-21.76c.38.22-15.72,21.93-12.56,23.75,0,0,12.7-24.34,13.71-23.75,0,0-15.93,24-13.71,25.32.09.05,14.62-25.32,14.62-25.32S147.81,65.59,151,67.44c0,0,15.49-27.76,15.89-27.52,2.82,1.63-16.83,30.36-15.89,30.91,2.81,1.62,11-20.26,11.53-20l-10.6,21.89s8.43-19.64,10.61-18.38-9,18.37-9,18.37c1.16.67,9-15.51,9-15.51s-9.38,14.32-7.32,15.5L162.56,60c1.2.69-6.82,11.7-5.12,12.68.82.47,4.82-9.06,5.13-8.88l-2.68,8.88c.67.39,2.68-4.65,2.68-4.65.42.24-.44,4.5-.19,4.64,0,0,.17-.37.2-.35l-.16.35s.16-.28.16-.28"/>
        <path class="cls-1" d="M201.49,40.24s.14-.29.16-.28L201.54,43c.44.25,1.77-3.07,1.77-3.07"/>
        <path class="cls-1" d="M188.82,51.22S194,38.75,195.53,39.6c.9.52-3.81,9.69-3.81,9.69S197,40,197,40.09s-5.15,8.3-4.16,8.86l4.89-8.46s-4.89,8.14-4.41,8.42c.07,0,4.75-8.23,4.75-8.23s-3.73,7.66-2.74,8.23,4.22-7.31,4.22-7.31c1,.59-3,7.59-3,7.59.91.53,3.9-6.76,3.9-6.76l-3.47,6.89,3.81-6.59s-3.2,6.84-2.62,7.17S204,40,204,40c1,.56-5.11,10.35-5.11,10.35.41.23,6-10.36,6-10.36l-4.68,11.63,6.72-11.64c.39.23-7.23,11.68-6.25,12.24l7.07-12.25c.67.39-6,14.75-6,14.75.79.46,6.5-15.93,8.52-14.76.65.37-8.75,18.79-8.75,18.79s10.75-18.86,10.85-18.8"/>
        <path class="cls-1" d="M176.66,48.49l1.62-2.81-3.09,7.49c.18.1,4.76-11.72,6.26-10.85l-6.4,12.43s6.3-14.1,7.68-13.3c1.65,1-7.58,17.52-7.58,17.52l11.06-19.15-11,19.46c2.17,1.25,11.29-19.55,11.29-19.55,2.41,1.39-11.27,19.68-11.27,19.68,2.55,1.47,8.56-21.35,11.39-19.72.24.14-11.37,19.87-11.37,19.87l11.5-19.91c1.29.75-11.23,21-11.23,21s9.93-22.82,12.36-21.42c.64.37-12.26,21.77-12.26,21.77,1.45.84,12.29-22,12.59-21.8,0,0-13.83,21.83-12.34,22.69L189,39.18S175.86,62.89,176.13,63c3,1.73,11.68-25.21,13.84-24,3.14,1.81-17,22.16-13.82,24l13.86-24c3.7,2.14-13.19,25.4-13.19,25.4S188.5,37.21,191.54,39c1.18.68-15.12,25.56-14.54,25.9L191.94,39S173.49,62.85,177,64.89c0,0,14.23-26.3,14.94-25.88,3.74,2.16-13.7,27.94-13.7,27.94l16-27.73S175.32,66,179.36,68.37c0,0,6.39-13.78,7.56-13.1l-6.7,14s5.82-12.18,6.73-11.66c0,0-6.89,11.7-6.28,12l6.48-11.23c.42.24-5.9,11.74-5.9,11.74s5.43-11.23,6.22-10.77c0,0-6.15,10.88-6,11,1.08.63,6.15-10.66,6.15-10.66s-6.88,10.26-6.07,10.73,5.56-10.95,6.13-10.62l-4.33,11.77,5.69-9.85c.16.09-6.16,9.57-4.82,10.34,0,0,5.18-9.93,5.59-9.69,0,0-5.77,9.56-4.9,10.06,0,0,5.56-9.63,5.56-9.63s-5.61,9.32-4.48,10c0,0,5.33-9.55,5.47-9.47.87.5-4.1,9.82-3.81,10,1.34.77,5.27-9.69,5.51-9.55l-3.62,9.8s4.48-10.44,5.64-9.77-4.07,9.92-4.07,9.92c.78.45,6-10.36,6-10.36s-5.62,9.48-4.29,10.25l6.93-12c1.09.63-6,10.68-4.48,11.57,2.84,1.64,16.73-31.42,17.79-30.81L198.63,71.59c3.61,2.08,14.46-25,14.46-25,2.41,1.39-12.95,23.48-11.54,24.3s9.68-21.08,11.55-20L201.55,72.06c.53.31,11.55-20,11.55-20s-10.54,20.6-10.41,20.68l10.41-18s-8.4,17.67-7.79,18,7.8-13.51,7.8-13.51S206.56,72,207.8,72.71l5.32-9.21c.36.21-5,8.74-4.19,9.2.23.13,3.61-7.6,4.19-7.26s-4,6.73-3.09,7.26c.51.29,3-5.42,3.09-5.36s-2.56,5-2,5.35c0,0,2-3.4,2-3.4s-.51,3.19-.16,3.39c0,0,.16-.29.16-.28"/>
      </g>
      <g>
        <path class="cls-1" d="M240,29.1c1.2.69,10.76-18.63,10.76-18.63,1.2.69-8.53,16.54-8.53,16.54,1.76,1,8.68-15,8.68-15l-5.33,11.9s4.36-9.64,5.26-9.12L248.26,21s1.78-3.13,1.8-3.11"/>
        <path class="cls-1" d="M222.57,37.34s.24-.43.24-.42l.22.42A11.16,11.16,0,0,1,224,35.7l.41,1.64s2.93-5.16,3-5.14-1.88,4.87-1.42,5.14c0,0,4.08-9.83,5.28-9.14l-2.88,9.14c.22.13,10.42-18.05,10.42-18.05s-9,17.72-8.47,18.05c3.12,1.8,18.32-31.73,18.32-31.73S230.38,37.3,230.46,37.34s14.15-34,18.25-31.61c2.7,1.56-20.24,29.63-16.83,31.61,0,0,15.84-31.36,17.54-30.38,4.08,2.35-17.09,30.38-17.09,30.38,3.36,1.94,13.37-32.26,17.31-30,4.39,2.54-19.92,28.43-17.22,30,3.65,2.11,13.36-32.16,17.27-29.91l-14.85,29.9c.21.12,15.18-27.72,15.8-27.36L235.27,37.34l4.57-7.91c.55.32-3.25,7.91-3.25,7.91.63.36,4.57-7.91,4.57-7.91l-4.24,7.91s3.87-8.32,4.57-7.91c1.09.63-3.49,7.91-3.49,7.91,1.14.66,4.57-7.92,4.57-7.92s-3.79,7.46-3,7.92l4.57-7.92c.06,0-3.24,7.58-2.66,7.92,0,0,4-8.25,4.57-7.92s-4.28,7.88-4.21,7.92c1,.59,4.58-7.92,4.58-7.92.53.3-3.91,7.92-3.91,7.92s4.38-8,4.58-7.93l-3.34,7.93c.88.51,4.58-7.93,4.58-7.93l-3.13,7.93c1.13.65,4.58-7.93,4.58-7.93.91.52-2.52,7.93-2.52,7.93s4.16-7.28,4.19-7.26c.61.35-3.34,6.87-2.65,7.26.46.26,2.05-5,2.66-4.61.11.06-1.4,4.41-1,4.61,0,0,.86-1.94,1.06-1.83,0,0-.23,1.79-.16,1.83a1.71,1.71,0,0,1,.16-.28"/>
        <path class="cls-1" d="M234.52,9.46c1.34.77,4.61-9.32,5.19-9,0,0-2.47,7.74-2.08,8L241.92,1c.86.5-3.52,7.47-3.24,7.63s4.22-7.32,4.22-7.32c1,.59-3.45,7.76-3.45,7.76.61.35,4.25-7.37,4.25-7.37L239.87,9.4s4.1-7.57,4.3-7.46c0,0-4.22,7.58-3.88,7.78.7.41,4.36-7.55,4.36-7.55.35.2-3.88,9.66-3.38,10l5.07-8.79c1.44.83-5,10.13-5,10.13.93.54,5.46-9.79,5.6-9.7.78.45-6.17,12-6.17,12,1.6.92,6.63-11.49,6.63-11.49"/>
        <path class="cls-1" d="M224.1,8.63s1.47-3.36,1.82-3.16c.64.37-3.5,7.82-2.79,8.24.91.53,6.51-11.76,6.72-11.64,1.05.61-7.35,11.55-6.1,12.27,1,.55,5.86-13.93,7.5-13,.86.49-7.5,12.68-7,13,0,0,6.6-13.8,7.62-13.2,1.76,1-6.23,13.2-6.23,13.2S232.47,0,233.57.66c0,0-6.76,13.23-6,13.66,1.22.71,6.57-14.8,8.05-13.95,1.7,1-7.53,13.11-6.09,13.94,1.61.93,7.22-14.52,8.09-14,0,0-8.31,13.76-7.87,14l8.08-14-6.14,14a23.29,23.29,0,0,1,1.69-2.93l-1.53,2.93c.3.17,1.47-2.54,1.47-2.54.16.09-1.6,2.44-1.41,2.54a20.25,20.25,0,0,0,1.39-2.41c.15.09-.94,2.29-.74,2.41l.62-1.07a4.53,4.53,0,0,0,0,1.07,1.63,1.63,0,0,0,.13-.22"/>
      </g>
    </g>
  </g>
</svg>
